<?xml version="1.0" encoding="UTF-8"?>
<!--Generator: Apple Native CoreSVG 123-->
<!DOCTYPE svg
PUBLIC "-//W3C//DTD SVG 1.1//EN"
       "http://www.w3.org/Graphics/SVG/1.1/DTD/svg11.dtd">
<svg version="1.1" xmlns="http://www.w3.org/2000/svg" xmlns:xlink="http://www.w3.org/1999/xlink" width="3300" height="2200">
 <!--glyph: "uni10012A.medium", point size: 100.000000, font version: "Version 15.0d7e11", template writer version: "5"-->
 <g id="Notes">
  <rect height="2200" id="artboard" style="fill:white;opacity:1" width="3300" x="0" y="0"/>
  <line id="" style="fill:none;stroke:black;opacity:1;stroke-width:0.5;" x1="263" x2="3036" y1="292" y2="292"/>
  <text style="stroke:none;fill:black;font-family:-apple-system,&quot;SF Pro Display&quot;,&quot;SF Pro Text&quot;,Helvetica,sans-serif;font-weight:bold;" transform="matrix(1 0 0 1 263 322)">Weight/Scale Variations</text>
  <text style="stroke:none;fill:black;font-family:-apple-system,&quot;SF Pro Display&quot;,&quot;SF Pro Text&quot;,Helvetica,sans-serif;text-anchor:middle;" transform="matrix(1 0 0 1 559.711 322)">Ultralight</text>
  <text style="stroke:none;fill:black;font-family:-apple-system,&quot;SF Pro Display&quot;,&quot;SF Pro Text&quot;,Helvetica,sans-serif;text-anchor:middle;" transform="matrix(1 0 0 1 856.422 322)">Thin</text>
  <text style="stroke:none;fill:black;font-family:-apple-system,&quot;SF Pro Display&quot;,&quot;SF Pro Text&quot;,Helvetica,sans-serif;text-anchor:middle;" transform="matrix(1 0 0 1 1153.13 322)">Light</text>
  <text style="stroke:none;fill:black;font-family:-apple-system,&quot;SF Pro Display&quot;,&quot;SF Pro Text&quot;,Helvetica,sans-serif;text-anchor:middle;" transform="matrix(1 0 0 1 1449.84 322)">Regular</text>
  <text style="stroke:none;fill:black;font-family:-apple-system,&quot;SF Pro Display&quot;,&quot;SF Pro Text&quot;,Helvetica,sans-serif;text-anchor:middle;" transform="matrix(1 0 0 1 1746.56 322)">Medium</text>
  <text style="stroke:none;fill:black;font-family:-apple-system,&quot;SF Pro Display&quot;,&quot;SF Pro Text&quot;,Helvetica,sans-serif;text-anchor:middle;" transform="matrix(1 0 0 1 2043.27 322)">Semibold</text>
  <text style="stroke:none;fill:black;font-family:-apple-system,&quot;SF Pro Display&quot;,&quot;SF Pro Text&quot;,Helvetica,sans-serif;text-anchor:middle;" transform="matrix(1 0 0 1 2339.98 322)">Bold</text>
  <text style="stroke:none;fill:black;font-family:-apple-system,&quot;SF Pro Display&quot;,&quot;SF Pro Text&quot;,Helvetica,sans-serif;text-anchor:middle;" transform="matrix(1 0 0 1 2636.69 322)">Heavy</text>
  <text style="stroke:none;fill:black;font-family:-apple-system,&quot;SF Pro Display&quot;,&quot;SF Pro Text&quot;,Helvetica,sans-serif;text-anchor:middle;" transform="matrix(1 0 0 1 2933.4 322)">Black</text>
  <line id="" style="fill:none;stroke:black;opacity:1;stroke-width:0.5;" x1="263" x2="3036" y1="1903" y2="1903"/>
  <g id="" transform="matrix(1 0 0 1 263 1933)">
   <path d="M 9.24805 0.830078 C 13.5547 0.830078 17.1387 -2.74414 17.1387 -7.05078 C 17.1387 -11.3574 13.5449 -14.9316 9.23828 -14.9316 C 4.94141 -14.9316 1.36719 -11.3574 1.36719 -7.05078 C 1.36719 -2.74414 4.95117 0.830078 9.24805 0.830078 Z M 9.24805 -0.654297 C 5.70312 -0.654297 2.87109 -3.49609 2.87109 -7.05078 C 2.87109 -10.6055 5.69336 -13.4473 9.23828 -13.4473 C 12.793 -13.4473 15.6348 -10.6055 15.6445 -7.05078 C 15.6543 -3.49609 12.8027 -0.654297 9.24805 -0.654297 Z M 9.22852 -3.42773 C 9.69727 -3.42773 9.9707 -3.74023 9.9707 -4.25781 L 9.9707 -6.31836 L 12.1973 -6.31836 C 12.6953 -6.31836 13.0371 -6.57227 13.0371 -7.04102 C 13.0371 -7.51953 12.7148 -7.7832 12.1973 -7.7832 L 9.9707 -7.7832 L 9.9707 -10.0098 C 9.9707 -10.5273 9.69727 -10.8496 9.22852 -10.8496 C 8.75977 -10.8496 8.50586 -10.5078 8.50586 -10.0098 L 8.50586 -7.7832 L 6.29883 -7.7832 C 5.78125 -7.7832 5.44922 -7.51953 5.44922 -7.04102 C 5.44922 -6.57227 5.80078 -6.31836 6.29883 -6.31836 L 8.50586 -6.31836 L 8.50586 -4.25781 C 8.50586 -3.75977 8.75977 -3.42773 9.22852 -3.42773 Z"/>
  </g>
  <g id="" transform="matrix(1 0 0 1 281.506 1933)">
   <path d="M 11.709 2.91016 C 17.1582 2.91016 21.6699 -1.60156 21.6699 -7.05078 C 21.6699 -12.4902 17.1484 -17.0117 11.6992 -17.0117 C 6.25977 -17.0117 1.74805 -12.4902 1.74805 -7.05078 C 1.74805 -1.60156 6.26953 2.91016 11.709 2.91016 Z M 11.709 1.25 C 7.09961 1.25 3.41797 -2.44141 3.41797 -7.05078 C 3.41797 -11.6504 7.08984 -15.3516 11.6992 -15.3516 C 16.3086 -15.3516 20 -11.6504 20.0098 -7.05078 C 20.0195 -2.44141 16.3184 1.25 11.709 1.25 Z M 11.6895 -2.41211 C 12.207 -2.41211 12.5195 -2.77344 12.5195 -3.33984 L 12.5195 -6.23047 L 15.5762 -6.23047 C 16.123 -6.23047 16.5039 -6.51367 16.5039 -7.03125 C 16.5039 -7.55859 16.1426 -7.86133 15.5762 -7.86133 L 12.5195 -7.86133 L 12.5195 -10.9277 C 12.5195 -11.5039 12.207 -11.8555 11.6895 -11.8555 C 11.1719 -11.8555 10.8789 -11.4844 10.8789 -10.9277 L 10.8789 -7.86133 L 7.83203 -7.86133 C 7.26562 -7.86133 6.89453 -7.55859 6.89453 -7.03125 C 6.89453 -6.51367 7.28516 -6.23047 7.83203 -6.23047 L 10.8789 -6.23047 L 10.8789 -3.33984 C 10.8789 -2.79297 11.1719 -2.41211 11.6895 -2.41211 Z"/>
  </g>
  <g id="" transform="matrix(1 0 0 1 304.924 1933)">
   <path d="M 14.9707 5.67383 C 21.9336 5.67383 27.6953 -0.078125 27.6953 -7.04102 C 27.6953 -14.0039 21.9238 -19.7559 14.9609 -19.7559 C 8.00781 -19.7559 2.25586 -14.0039 2.25586 -7.04102 C 2.25586 -0.078125 8.01758 5.67383 14.9707 5.67383 Z M 14.9707 3.85742 C 8.93555 3.85742 4.08203 -1.00586 4.08203 -7.04102 C 4.08203 -13.0762 8.92578 -17.9395 14.9609 -17.9395 C 21.0059 -17.9395 25.8594 -13.0762 25.8691 -7.04102 C 25.8789 -1.00586 21.0156 3.85742 14.9707 3.85742 Z M 14.9512 -1.06445 C 15.5176 -1.06445 15.8691 -1.45508 15.8691 -2.06055 L 15.8691 -6.13281 L 20.1074 -6.13281 C 20.6934 -6.13281 21.1133 -6.46484 21.1133 -7.02148 C 21.1133 -7.59766 20.7227 -7.93945 20.1074 -7.93945 L 15.8691 -7.93945 L 15.8691 -12.1875 C 15.8691 -12.8027 15.5176 -13.1934 14.9512 -13.1934 C 14.3848 -13.1934 14.0625 -12.7832 14.0625 -12.1875 L 14.0625 -7.93945 L 9.83398 -7.93945 C 9.21875 -7.93945 8.80859 -7.59766 8.80859 -7.02148 C 8.80859 -6.46484 9.23828 -6.13281 9.83398 -6.13281 L 14.0625 -6.13281 L 14.0625 -2.06055 C 14.0625 -1.47461 14.3848 -1.06445 14.9512 -1.06445 Z"/>
  </g>
  <text style="stroke:none;fill:black;font-family:-apple-system,&quot;SF Pro Display&quot;,&quot;SF Pro Text&quot;,Helvetica,sans-serif;font-weight:bold;" transform="matrix(1 0 0 1 263 1953)">Design Variations</text>
  <text style="stroke:none;fill:black;font-family:-apple-system,&quot;SF Pro Display&quot;,&quot;SF Pro Text&quot;,Helvetica,sans-serif;" transform="matrix(1 0 0 1 263 1971)">Symbols are supported in up to nine weights and three scales.</text>
  <text style="stroke:none;fill:black;font-family:-apple-system,&quot;SF Pro Display&quot;,&quot;SF Pro Text&quot;,Helvetica,sans-serif;" transform="matrix(1 0 0 1 263 1989)">For optimal layout with text and other symbols, vertically align</text>
  <text style="stroke:none;fill:black;font-family:-apple-system,&quot;SF Pro Display&quot;,&quot;SF Pro Text&quot;,Helvetica,sans-serif;" transform="matrix(1 0 0 1 263 2007)">symbols with the adjacent text.</text>
  <rect height="14" id="" style="fill:#00AEEF;stroke:none;opacity:0.4;" width="3" x="776" y="1919"/>
  <g id="" transform="matrix(1 0 0 1 779 1933)">
   <path d="M 10.5273 0 L 12.373 0 L 7.17773 -14.0918 L 5.43945 -14.0918 L 0.244141 0 L 2.08984 0 L 3.50586 -4.0332 L 9.11133 -4.0332 Z M 6.2793 -11.9531 L 6.33789 -11.9531 L 8.59375 -5.52734 L 4.02344 -5.52734 Z"/>
  </g>
  <rect height="14" id="" style="fill:#00AEEF;stroke:none;opacity:0.4;" width="3" x="791.617" y="1919"/>
  <text style="stroke:none;fill:black;font-family:-apple-system,&quot;SF Pro Display&quot;,&quot;SF Pro Text&quot;,Helvetica,sans-serif;font-weight:bold;" transform="matrix(1 0 0 1 776 1953)">Margins</text>
  <text style="stroke:none;fill:black;font-family:-apple-system,&quot;SF Pro Display&quot;,&quot;SF Pro Text&quot;,Helvetica,sans-serif;" transform="matrix(1 0 0 1 776 1971)">Leading and trailing margins on the left and right side of each symbol</text>
  <text style="stroke:none;fill:black;font-family:-apple-system,&quot;SF Pro Display&quot;,&quot;SF Pro Text&quot;,Helvetica,sans-serif;" transform="matrix(1 0 0 1 776 1989)">can be adjusted by modifying the width of the blue rectangles.</text>
  <text style="stroke:none;fill:black;font-family:-apple-system,&quot;SF Pro Display&quot;,&quot;SF Pro Text&quot;,Helvetica,sans-serif;" transform="matrix(1 0 0 1 776 2007)">Modifications are automatically applied proportionally to all</text>
  <text style="stroke:none;fill:black;font-family:-apple-system,&quot;SF Pro Display&quot;,&quot;SF Pro Text&quot;,Helvetica,sans-serif;" transform="matrix(1 0 0 1 776 2025)">scales and weights.</text>
  <g id="" transform="matrix(1 0 0 1 1289 1933)">
   <path d="M 2.83203 3.11523 L 4.375 4.6582 C 5.22461 5.48828 6.19141 5.41992 7.06055 4.46289 L 17.2754 -6.66016 C 17.7051 -6.36719 18.0957 -6.37695 18.5645 -6.47461 L 19.6094 -6.68945 L 20.3027 -5.99609 L 20.2539 -5.47852 C 20.1855 -4.95117 20.3516 -4.53125 20.8496 -4.0332 L 21.6602 -3.22266 C 22.168 -2.71484 22.8223 -2.68555 23.3008 -3.16406 L 26.5527 -6.41602 C 27.0312 -6.89453 27.0117 -7.54883 26.5039 -8.05664 L 25.6836 -8.87695 C 25.1855 -9.375 24.7754 -9.55078 24.2383 -9.47266 L 23.7109 -9.41406 L 23.0566 -10.0781 L 23.3398 -11.2207 C 23.4863 -11.7871 23.3398 -12.2559 22.7148 -12.8613 L 20.3027 -15.2539 C 16.7578 -18.7793 12.2266 -18.6719 9.11133 -15.5371 C 8.69141 -15.1074 8.64258 -14.5215 8.91602 -14.0918 C 9.15039 -13.7207 9.62891 -13.4961 10.2734 -13.6621 C 11.7871 -14.043 13.3008 -13.9258 14.7852 -12.9199 L 14.1602 -11.3379 C 13.9258 -10.752 13.9453 -10.2734 14.1797 -9.83398 L 3.01758 0.439453 C 2.08008 1.30859 1.97266 2.25586 2.83203 3.11523 Z M 10.6738 -15.1465 C 13.3398 -17.1387 16.6504 -16.8262 19.0527 -14.4141 L 21.6797 -11.8066 C 21.9141 -11.5723 21.9434 -11.3867 21.8848 -11.0938 L 21.5039 -9.53125 L 23.0762 -7.95898 L 24.043 -8.04688 C 24.3262 -8.07617 24.4141 -8.05664 24.6387 -7.83203 L 25.2637 -7.20703 L 22.5098 -4.46289 L 21.8848 -5.07812 C 21.6602 -5.30273 21.6406 -5.40039 21.6699 -5.68359 L 21.7578 -6.64062 L 20.1953 -8.20312 L 18.5742 -7.89062 C 18.291 -7.83203 18.1445 -7.83203 17.9102 -8.07617 L 15.7324 -10.2539 C 15.5078 -10.4883 15.4785 -10.625 15.6055 -10.9473 L 16.5527 -13.2227 C 14.9512 -14.7559 12.8418 -15.6055 10.8008 -14.9512 C 10.7129 -14.9219 10.6445 -14.9414 10.6152 -14.9805 C 10.5859 -15.0293 10.5859 -15.0781 10.6738 -15.1465 Z M 4.10156 2.41211 C 3.61328 1.91406 3.78906 1.61133 4.12109 1.30859 L 15.0781 -8.80859 L 16.3086 -7.57812 L 6.15234 3.34961 C 5.84961 3.68164 5.46875 3.7793 5.06836 3.37891 Z"/>
  </g>
  <text style="stroke:none;fill:black;font-family:-apple-system,&quot;SF Pro Display&quot;,&quot;SF Pro Text&quot;,Helvetica,sans-serif;font-weight:bold;" transform="matrix(1 0 0 1 1289 1953)">Exporting</text>
  <text style="stroke:none;fill:black;font-family:-apple-system,&quot;SF Pro Display&quot;,&quot;SF Pro Text&quot;,Helvetica,sans-serif;" transform="matrix(1 0 0 1 1289 1971)">Symbols should be outlined when exporting to ensure the</text>
  <text style="stroke:none;fill:black;font-family:-apple-system,&quot;SF Pro Display&quot;,&quot;SF Pro Text&quot;,Helvetica,sans-serif;" transform="matrix(1 0 0 1 1289 1989)">design is preserved when submitting to Xcode.</text>
  <text id="template-version" style="stroke:none;fill:black;font-family:-apple-system,&quot;SF Pro Display&quot;,&quot;SF Pro Text&quot;,Helvetica,sans-serif;text-anchor:end;" transform="matrix(1 0 0 1 3036 1933)">Template v.1.0</text>
  <text style="stroke:none;fill:black;font-family:-apple-system,&quot;SF Pro Display&quot;,&quot;SF Pro Text&quot;,Helvetica,sans-serif;text-anchor:end;" transform="matrix(1 0 0 1 3036 1951)">Generated from arrow.left</text>
  <text style="stroke:none;fill:black;font-family:-apple-system,&quot;SF Pro Display&quot;,&quot;SF Pro Text&quot;,Helvetica,sans-serif;text-anchor:end;" transform="matrix(1 0 0 1 3036 1969)">Typeset at 100 points</text>
  <text style="stroke:none;fill:black;font-family:-apple-system,&quot;SF Pro Display&quot;,&quot;SF Pro Text&quot;,Helvetica,sans-serif;" transform="matrix(1 0 0 1 263 726)">Small</text>
  <text style="stroke:none;fill:black;font-family:-apple-system,&quot;SF Pro Display&quot;,&quot;SF Pro Text&quot;,Helvetica,sans-serif;" transform="matrix(1 0 0 1 263 1156)">Medium</text>
  <text style="stroke:none;fill:black;font-family:-apple-system,&quot;SF Pro Display&quot;,&quot;SF Pro Text&quot;,Helvetica,sans-serif;" transform="matrix(1 0 0 1 263 1586)">Large</text>
 </g>
 <g id="Guides">
  <g id="H-reference" style="fill:#27AAE1;stroke:none;" transform="matrix(1 0 0 1 339 696)">
   <path d="M 54.9316 0 L 57.666 0 L 30.5664 -70.459 L 28.0762 -70.459 L 0.976562 0 L 3.66211 0 L 12.9395 -24.4629 L 45.7031 -24.4629 Z M 29.1992 -67.0898 L 29.4434 -67.0898 L 44.8242 -26.709 L 13.8184 -26.709 Z"/>
  </g>
  <line id="Baseline-S" style="fill:none;stroke:#27AAE1;opacity:1;stroke-width:0.577;" x1="263" x2="3036" y1="696" y2="696"/>
  <line id="Capline-S" style="fill:none;stroke:#27AAE1;opacity:1;stroke-width:0.577;" x1="263" x2="3036" y1="625.541" y2="625.541"/>
  <g id="H-reference" style="fill:#27AAE1;stroke:none;" transform="matrix(1 0 0 1 339 1126)">
   <path d="M 54.9316 0 L 57.666 0 L 30.5664 -70.459 L 28.0762 -70.459 L 0.976562 0 L 3.66211 0 L 12.9395 -24.4629 L 45.7031 -24.4629 Z M 29.1992 -67.0898 L 29.4434 -67.0898 L 44.8242 -26.709 L 13.8184 -26.709 Z"/>
  </g>
  <line id="Baseline-M" style="fill:none;stroke:#27AAE1;opacity:1;stroke-width:0.577;" x1="263" x2="3036" y1="1126" y2="1126"/>
  <line id="Capline-M" style="fill:none;stroke:#27AAE1;opacity:1;stroke-width:0.577;" x1="263" x2="3036" y1="1055.54" y2="1055.54"/>
  <g id="H-reference" style="fill:#27AAE1;stroke:none;" transform="matrix(1 0 0 1 339 1556)">
   <path d="M 54.9316 0 L 57.666 0 L 30.5664 -70.459 L 28.0762 -70.459 L 0.976562 0 L 3.66211 0 L 12.9395 -24.4629 L 45.7031 -24.4629 Z M 29.1992 -67.0898 L 29.4434 -67.0898 L 44.8242 -26.709 L 13.8184 -26.709 Z"/>
  </g>
  <line id="Baseline-L" style="fill:none;stroke:#27AAE1;opacity:1;stroke-width:0.577;" x1="263" x2="3036" y1="1556" y2="1556"/>
  <line id="Capline-L" style="fill:none;stroke:#27AAE1;opacity:1;stroke-width:0.577;" x1="263" x2="3036" y1="1485.54" y2="1485.54"/>
  <rect height="119.336" id="left-margin" style="fill:#00AEEF;stroke:none;opacity:0.4;" width="12.4512" x="1392.06" y="1030.79"/>
  <rect height="119.336" id="right-margin" style="fill:#00AEEF;stroke:none;opacity:0.4;" width="12.4512" x="1495.18" y="1030.79"/>
 </g>
 <g id="Symbols">
  <g id="Black-L" transform="matrix(1 0 0 1 2854.32 1556)">
   <path d="M 16.0645 -35.5469 C 16.0645 -32.4707 17.3828 -29.1992 19.4336 -27.1484 L 59.9121 13.2324 C 62.2559 15.5273 65.0879 16.748 67.8223 16.748 C 74.6094 16.748 79.1016 12.1094 79.1016 6.00586 C 79.1016 2.44141 77.4902 -0.0976562 75.3418 -2.19727 L 62.0605 -15.4297 L 51.8555 -24.8047 L 64.8926 -24.1211 L 130.078 -24.1211 C 137.305 -24.1211 142.09 -28.7109 142.09 -35.5469 C 142.09 -42.4316 137.305 -46.9727 130.078 -46.9727 L 64.8926 -46.9727 L 51.8555 -46.2891 L 62.0605 -55.7129 L 75.3418 -68.9941 C 77.4902 -71.0449 79.1016 -73.6328 79.1016 -77.1484 C 79.1016 -83.3008 74.6094 -87.9395 67.8223 -87.9395 C 65.0879 -87.9395 62.2559 -86.7188 59.9121 -84.375 L 19.4336 -43.9453 C 17.3828 -41.9434 16.0645 -38.623 16.0645 -35.5469 Z"/>
  </g>
  <g id="Heavy-L" transform="matrix(1 0 0 1 2558.69 1556)">
   <path d="M 16.0645 -35.498 C 16.0645 -32.8125 17.1875 -30.0293 19.043 -28.2227 L 59.9121 12.5977 C 61.9629 14.5996 64.4043 15.625 66.748 15.625 C 72.5586 15.625 76.4648 11.6211 76.4648 6.29883 C 76.4648 3.32031 75.1465 1.07422 73.3398 -0.732422 L 59.1309 -14.9414 L 46.6797 -26.3672 L 60.1562 -25.6348 L 129.688 -25.6348 C 135.84 -25.6348 139.941 -29.5898 139.941 -35.498 C 139.941 -41.4062 135.84 -45.3613 129.688 -45.3613 L 60.1562 -45.3613 L 46.7285 -44.6289 L 59.1309 -56.0547 L 73.3398 -70.3125 C 75.1465 -72.0703 76.4648 -74.3652 76.4648 -77.3438 C 76.4648 -82.666 72.5586 -86.6699 66.748 -86.6699 C 64.4043 -86.6699 61.9629 -85.6445 59.8633 -83.5449 L 19.043 -42.7246 C 17.1875 -40.9668 16.0645 -38.1348 16.0645 -35.498 Z"/>
  </g>
  <g id="Bold-L" transform="matrix(1 0 0 1 2263.17 1556)">
   <path d="M 16.0645 -35.4004 C 16.0645 -33.2031 16.9922 -30.957 18.5547 -29.4434 L 59.9121 11.8652 C 61.6211 13.5254 63.5742 14.4043 65.5762 14.4043 C 70.3125 14.4043 73.5352 11.084 73.5352 6.68945 C 73.5352 4.29688 72.5586 2.39258 71.0449 0.927734 L 55.8105 -14.3555 L 40.918 -28.0762 L 54.8828 -27.3438 L 129.248 -27.3438 C 134.18 -27.3438 137.549 -30.6152 137.549 -35.4004 C 137.549 -40.2344 134.18 -43.5059 129.248 -43.5059 L 54.8828 -43.5059 L 40.9668 -42.7734 L 55.8105 -56.4453 L 71.0449 -71.7773 C 72.5586 -73.2422 73.5352 -75.1465 73.5352 -77.5391 C 73.5352 -81.9336 70.3125 -85.2539 65.5762 -85.2539 C 63.5742 -85.2539 61.5723 -84.375 59.7656 -82.6172 L 18.5547 -41.4062 C 16.9922 -39.8438 16.0645 -37.5977 16.0645 -35.4004 Z"/>
  </g>
  <g id="Semibold-L" transform="matrix(1 0 0 1 1967.27 1556)">
   <path d="M 16.0645 -35.3516 C 16.0645 -33.4961 16.8457 -31.5918 18.2617 -30.2734 L 59.9121 11.377 C 61.377 12.793 63.0371 13.5254 64.7949 13.5254 C 68.75 13.5254 71.5332 10.6934 71.5332 6.93359 C 71.5332 4.98047 70.7031 3.27148 69.4824 2.05078 L 53.5645 -13.9648 L 36.9629 -29.248 L 51.2695 -28.5156 L 128.906 -28.5156 C 133.057 -28.5156 135.938 -31.2988 135.938 -35.3516 C 135.938 -39.4043 133.057 -42.2363 128.906 -42.2363 L 51.2695 -42.2363 L 37.0117 -41.4551 L 53.5645 -56.7383 L 69.4824 -72.8027 C 70.752 -74.0234 71.5332 -75.7324 71.5332 -77.6855 C 71.5332 -81.4453 68.75 -84.2773 64.7949 -84.2773 C 63.0371 -84.2773 61.3281 -83.5449 59.7168 -81.9336 L 18.2617 -40.4297 C 16.8457 -39.1113 16.0645 -37.2559 16.0645 -35.3516 Z"/>
  </g>
  <g id="Medium-L" transform="matrix(1 0 0 1 1671.16 1556)">
   <path d="M 16.0645 -35.3027 C 16.0645 -33.6914 16.748 -32.0801 18.0176 -30.9082 L 59.9121 10.9863 C 61.1816 12.2559 62.6465 12.8418 64.1602 12.8418 C 67.5293 12.8418 70.0195 10.4004 70.0195 7.12891 C 70.0195 5.46875 69.3359 3.95508 68.3105 2.88086 L 51.8555 -13.6719 L 33.9355 -30.1758 L 48.4863 -29.3945 L 128.711 -29.3945 C 132.227 -29.3945 134.717 -31.8359 134.717 -35.3027 C 134.717 -38.8184 132.227 -41.2598 128.711 -41.2598 L 48.4863 -41.2598 L 33.9844 -40.4785 L 51.8555 -56.9824 L 68.3105 -73.5352 C 69.3848 -74.6582 70.0195 -76.123 70.0195 -77.7832 C 70.0195 -81.0547 67.5293 -83.4961 64.1602 -83.4961 C 62.6465 -83.4961 61.1328 -82.9102 59.668 -81.4453 L 18.0176 -39.7461 C 16.748 -38.5254 16.0645 -36.9629 16.0645 -35.3027 Z"/>
  </g>
  <g id="Regular-L" transform="matrix(1 0 0 1 1375.28 1556)">
   <path d="M 16.0645 -35.2539 C 16.0645 -33.9355 16.6016 -32.7148 17.6758 -31.7383 L 59.9121 10.5469 C 60.9863 11.5234 62.0605 12.0117 63.3301 12.0117 C 66.0156 12.0117 68.0176 10.0586 68.0176 7.42188 C 68.0176 6.15234 67.5781 4.88281 66.748 4.00391 L 49.6094 -13.2812 L 30.0293 -31.3477 L 44.9219 -30.5176 L 128.369 -30.5176 C 131.104 -30.5176 133.057 -32.5195 133.057 -35.2539 C 133.057 -38.0371 131.104 -39.9902 128.369 -39.9902 L 44.9219 -39.9902 L 30.0781 -39.209 L 49.6094 -57.2266 L 66.748 -74.5605 C 67.5781 -75.4395 68.0176 -76.6602 68.0176 -77.9297 C 68.0176 -80.5664 66.0156 -82.5195 63.3301 -82.5195 C 62.0605 -82.5195 60.8887 -82.0801 59.6191 -80.8105 L 17.6758 -38.8184 C 16.6016 -37.793 16.0645 -36.5723 16.0645 -35.2539 Z"/>
  </g>
  <g id="Light-L" transform="matrix(1 0 0 1 1078.57 1556)">
   <path d="M 16.0645 -35.2539 C 16.0645 -34.2773 16.4551 -33.3984 17.2363 -32.6172 L 59.9609 10.2051 C 60.7422 10.9863 61.5723 11.3281 62.5488 11.3281 C 64.5508 11.3281 66.0645 9.81445 66.0645 7.86133 C 66.0645 6.88477 65.7227 5.9082 65.0879 5.32227 L 43.8477 -16.0645 L 26.6113 -32.3242 L 40.918 -31.7383 L 129.59 -31.7383 C 131.592 -31.7383 133.057 -33.2031 133.057 -35.2539 C 133.057 -37.3535 131.592 -38.8184 129.59 -38.8184 L 40.918 -38.8184 L 26.6113 -38.2324 L 43.8477 -54.4434 L 65.0879 -75.8301 C 65.7715 -76.5137 66.0645 -77.4414 66.0645 -78.418 C 66.0645 -80.3711 64.5508 -81.8359 62.5488 -81.8359 C 61.5723 -81.8359 60.6445 -81.4941 59.5215 -80.3711 L 17.2363 -37.8906 C 16.4551 -37.1582 16.0645 -36.2793 16.0645 -35.2539 Z"/>
  </g>
  <g id="Thin-L" transform="matrix(1 0 0 1 781.862 1556)">
   <path d="M 16.0645 -35.2539 C 16.0645 -34.668 16.2598 -34.2285 16.6992 -33.8379 L 60.0586 9.81445 C 60.4492 10.2051 60.8887 10.4004 61.4746 10.4004 C 62.6465 10.4004 63.4766 9.52148 63.4766 8.49609 C 63.4766 7.91016 63.2812 7.32422 62.9395 6.98242 L 36.2305 -19.7266 L 22.1191 -33.5449 L 35.6445 -33.3008 L 131.152 -33.3008 C 132.178 -33.3008 133.057 -34.1309 133.057 -35.2539 C 133.057 -36.377 132.178 -37.207 131.152 -37.207 L 35.6445 -37.207 L 22.1191 -36.9629 L 36.2305 -50.7812 L 62.9395 -77.5391 C 63.3301 -77.9297 63.4766 -78.418 63.4766 -79.0039 C 63.4766 -80.0781 62.6465 -80.957 61.4746 -80.957 C 60.8887 -80.957 60.3027 -80.7617 59.375 -79.7363 L 16.6992 -36.7188 C 16.2598 -36.2793 16.0645 -35.8398 16.0645 -35.2539 Z"/>
  </g>
  <g id="Ultralight-L" transform="matrix(1 0 0 1 485.151 1556)">
   <path d="M 16.0645 -35.2539 C 16.0645 -34.9121 16.1621 -34.668 16.4062 -34.4238 L 60.0586 9.57031 C 60.3027 9.81445 60.5469 9.96094 60.9375 9.96094 C 61.6699 9.96094 62.1582 9.375 62.1582 8.78906 C 62.1582 8.39844 62.0117 8.00781 61.8652 7.86133 L 32.373 -21.6309 L 19.8242 -34.1797 L 32.9102 -34.1309 L 131.934 -34.1309 C 132.52 -34.1309 133.057 -34.6191 133.057 -35.2539 C 133.057 -35.9375 132.52 -36.4258 131.934 -36.4258 L 32.9102 -36.4258 L 19.8242 -36.377 L 32.373 -48.9258 L 61.8652 -78.3691 C 62.1094 -78.6621 62.1582 -78.9551 62.1582 -79.3457 C 62.1582 -79.9316 61.6699 -80.4688 60.9375 -80.4688 C 60.5469 -80.4688 60.1074 -80.3711 59.2773 -79.4434 L 16.4062 -36.084 C 16.1621 -35.8398 16.0645 -35.6445 16.0645 -35.2539 Z"/>
  </g>
  <g id="Black-M" transform="matrix(1 0 0 1 2870.68 1126)">
   <path d="M 12.4512 -35.5957 C 12.4512 -32.8125 13.6719 -29.7852 15.4297 -28.0273 L 46.4844 2.97852 C 48.584 5.07812 51.1719 6.20117 53.5645 6.20117 C 59.8145 6.20117 63.7695 2.00195 63.7695 -3.51562 C 63.7695 -6.78711 62.2559 -9.0332 60.3027 -10.9375 L 48.9746 -22.0215 L 45.1172 -25.6836 L 54.4922 -25.2441 L 102.002 -25.2441 C 108.594 -25.2441 112.988 -29.3457 112.988 -35.5957 C 112.988 -41.8457 108.594 -45.9473 102.002 -45.9473 L 54.4922 -45.9473 L 45.1172 -45.5078 L 48.9746 -49.1211 L 60.3027 -60.3027 C 62.2559 -62.1582 63.7695 -64.4531 63.7695 -67.7246 C 63.7695 -73.1934 59.8145 -77.4414 53.5645 -77.4414 C 51.1719 -77.4414 48.584 -76.3184 46.4844 -74.2188 L 15.4297 -43.1641 C 13.6719 -41.4062 12.4512 -38.3301 12.4512 -35.5957 Z"/>
  </g>
  <g id="Heavy-M" transform="matrix(1 0 0 1 2575.14 1126)">
   <path d="M 12.4512 -35.498 C 12.4512 -33.1055 13.4766 -30.5176 15.0391 -28.9551 L 46.4844 2.39258 C 48.291 4.19922 50.4883 5.17578 52.5879 5.17578 C 57.959 5.17578 61.4258 1.51367 61.4258 -3.22266 C 61.4258 -6.00586 60.1562 -8.05664 58.4961 -9.66797 L 47.2656 -20.752 L 40.4785 -27.0508 L 50.3906 -26.5625 L 101.221 -26.5625 C 106.885 -26.5625 110.645 -30.127 110.645 -35.498 C 110.645 -40.8691 106.885 -44.4336 101.221 -44.4336 L 50.3906 -44.4336 L 40.4785 -43.9453 L 47.2656 -50.2441 L 58.4961 -61.377 C 60.1562 -63.0371 61.4258 -65.0391 61.4258 -67.8223 C 61.4258 -72.5586 57.959 -76.2207 52.5879 -76.2207 C 50.4883 -76.2207 48.291 -75.2441 46.4355 -73.4375 L 15.0391 -42.041 C 13.4766 -40.4785 12.4512 -37.8906 12.4512 -35.498 Z"/>
  </g>
  <g id="Bold-M" transform="matrix(1 0 0 1 2279.72 1126)">
   <path d="M 12.4512 -35.4004 C 12.4512 -33.4473 13.3301 -31.3477 14.6973 -30.0293 L 46.4355 1.70898 C 47.9492 3.22266 49.7559 4.00391 51.5625 4.00391 C 55.8594 4.00391 58.7891 0.976562 58.7891 -2.97852 C 58.7891 -5.17578 57.8125 -6.88477 56.4453 -8.25195 L 45.3613 -19.3359 L 35.2539 -28.6133 L 45.8008 -28.0762 L 100.391 -28.0762 C 104.98 -28.0762 108.057 -31.0059 108.057 -35.4004 C 108.057 -39.7949 104.98 -42.7734 100.391 -42.7734 L 45.8008 -42.7734 L 35.2539 -42.1875 L 45.3613 -51.5137 L 56.4453 -62.6465 C 57.8125 -63.9648 58.7891 -65.6738 58.7891 -67.9199 C 58.7891 -71.875 55.8594 -74.8535 51.5625 -74.8535 C 49.7559 -74.8535 47.9492 -74.0723 46.3867 -72.5098 L 14.6973 -40.8203 C 13.3301 -39.502 12.4512 -37.4023 12.4512 -35.4004 Z"/>
  </g>
  <g id="Semibold-M" transform="matrix(1 0 0 1 1983.92 1126)">
   <path d="M 12.4512 -35.3516 C 12.4512 -33.6426 13.1836 -31.9336 14.4043 -30.7129 L 46.4355 1.2207 C 47.7539 2.53906 49.2676 3.17383 50.8301 3.17383 C 54.4434 3.17383 56.9824 0.634766 56.9824 -2.7832 C 56.9824 -4.63867 56.2012 -6.10352 55.0781 -7.27539 L 44.043 -18.3594 L 31.6406 -29.7363 L 42.627 -29.1016 L 99.8535 -29.1016 C 103.662 -29.1016 106.25 -31.6406 106.25 -35.3516 C 106.25 -39.0625 103.662 -41.6016 99.8535 -41.6016 L 42.627 -41.6016 L 31.6406 -41.0156 L 44.043 -52.3438 L 55.0781 -63.4766 C 56.25 -64.6484 56.9824 -66.1133 56.9824 -67.9688 C 56.9824 -71.3379 54.4434 -73.9258 50.8301 -73.9258 C 49.2676 -73.9258 47.7539 -73.291 46.3379 -71.9238 L 14.4043 -39.9902 C 13.1836 -38.8184 12.4512 -37.0605 12.4512 -35.3516 Z"/>
  </g>
  <g id="Medium-M" transform="matrix(1 0 0 1 1687.89 1126)">
   <path d="M 12.4512 -35.3027 C 12.4512 -33.8379 13.0859 -32.373 14.209 -31.2988 L 46.4355 0.878906 C 47.6074 2.00195 48.877 2.53906 50.293 2.53906 C 53.3691 2.53906 55.6152 0.341797 55.6152 -2.63672 C 55.6152 -4.19922 55.0293 -5.51758 54.0039 -6.49414 L 43.0176 -17.627 L 28.8574 -30.5664 L 40.2344 -29.8828 L 99.4141 -29.8828 C 102.637 -29.8828 104.883 -32.1289 104.883 -35.3027 C 104.883 -38.5254 102.637 -40.7715 99.4141 -40.7715 L 40.2344 -40.7715 L 28.9062 -40.0879 L 43.0176 -53.0273 L 54.0039 -64.1602 C 55.0293 -65.1367 55.6152 -66.4551 55.6152 -68.0176 C 55.6152 -70.9961 53.3691 -73.1934 50.293 -73.1934 C 48.877 -73.1934 47.5586 -72.6562 46.2891 -71.4355 L 14.209 -39.3555 C 13.0859 -38.2812 12.4512 -36.8164 12.4512 -35.3027 Z"/>
  </g>
  <g id="Regular-M" transform="matrix(1 0 0 1 1392.06 1126)">
   <path d="M 12.4512 -35.2539 C 12.4512 -34.0332 12.9883 -32.9102 13.9648 -31.9824 L 46.3867 0.390625 C 47.3633 1.31836 48.3887 1.75781 49.5605 1.75781 C 51.9531 1.75781 53.8574 0 53.8574 -2.44141 C 53.8574 -3.61328 53.418 -4.78516 52.6367 -5.51758 L 41.6992 -16.6504 L 25.2441 -31.6406 L 37.0605 -30.9082 L 98.8281 -30.9082 C 101.367 -30.9082 103.125 -32.7148 103.125 -35.2539 C 103.125 -37.793 101.367 -39.5996 98.8281 -39.5996 L 37.0605 -39.5996 L 25.293 -38.8672 L 41.6992 -53.8574 L 52.6367 -64.9902 C 53.418 -65.7715 53.8574 -66.8945 53.8574 -68.0664 C 53.8574 -70.5078 51.9531 -72.2656 49.5605 -72.2656 C 48.3887 -72.2656 47.3633 -71.875 46.2891 -70.8008 L 13.9648 -38.5254 C 12.9883 -37.5977 12.4512 -36.4746 12.4512 -35.2539 Z"/>
  </g>
  <g id="Light-M" transform="matrix(1 0 0 1 1095.35 1126)">
   <path d="M 12.4512 -35.2539 C 12.4512 -34.3262 12.8418 -33.4961 13.5742 -32.8125 L 46.4355 0.146484 C 47.168 0.830078 47.9492 1.12305 48.8281 1.12305 C 50.6836 1.12305 52.0996 -0.244141 52.0996 -2.05078 C 52.0996 -2.92969 51.7578 -3.80859 51.1719 -4.39453 L 36.5723 -19.1406 L 22.1191 -32.5195 L 33.4961 -31.9824 L 99.9023 -31.9824 C 101.758 -31.9824 103.125 -33.3496 103.125 -35.2539 C 103.125 -37.1582 101.758 -38.5254 99.9023 -38.5254 L 33.4961 -38.5254 L 22.168 -37.9883 L 36.5723 -51.3672 L 51.1719 -66.1133 C 51.8066 -66.748 52.0996 -67.5781 52.0996 -68.5059 C 52.0996 -70.3125 50.6836 -71.6797 48.8281 -71.6797 C 47.9492 -71.6797 47.1191 -71.3379 46.1914 -70.4102 L 13.5742 -37.6953 C 12.8418 -37.0117 12.4512 -36.1816 12.4512 -35.2539 Z"/>
  </g>
  <g id="Thin-M" transform="matrix(1 0 0 1 798.634 1126)">
   <path d="M 12.4512 -35.2539 C 12.4512 -34.7168 12.6465 -34.2773 13.0859 -33.8867 L 46.5332 -0.244141 C 46.9238 0.146484 47.3145 0.341797 47.8516 0.341797 C 48.9746 0.341797 49.7559 -0.488281 49.7559 -1.51367 C 49.7559 -2.05078 49.5605 -2.58789 49.2676 -2.88086 L 29.7363 -22.4121 L 18.1152 -33.6914 L 28.7598 -33.3984 L 101.27 -33.3984 C 102.295 -33.3984 103.125 -34.1797 103.125 -35.2539 C 103.125 -36.3281 102.295 -37.1094 101.27 -37.1094 L 28.7598 -37.1094 L 18.1152 -36.8652 L 29.7363 -48.0957 L 49.2676 -67.627 C 49.6094 -68.0176 49.7559 -68.5059 49.7559 -69.043 C 49.7559 -70.0195 48.9746 -70.8496 47.8516 -70.8496 C 47.3145 -70.8496 46.8262 -70.6543 46.0449 -69.873 L 13.0859 -36.6211 C 12.6465 -36.2305 12.4512 -35.791 12.4512 -35.2539 Z"/>
  </g>
  <g id="Ultralight-M" transform="matrix(1 0 0 1 501.923 1126)">
   <path d="M 12.4512 -35.2539 C 12.4512 -34.9121 12.5488 -34.668 12.793 -34.4238 L 46.5332 -0.439453 C 46.7773 -0.195312 47.0215 -0.0976562 47.3633 -0.0976562 C 48.0957 -0.0976562 48.584 -0.634766 48.584 -1.2207 C 48.584 -1.5625 48.4375 -1.9043 48.291 -2.09961 L 26.2695 -24.1211 L 16.0645 -34.2285 L 26.3184 -34.1309 L 102.002 -34.1309 C 102.588 -34.1309 103.125 -34.6191 103.125 -35.2539 C 103.125 -35.8887 102.588 -36.377 102.002 -36.377 L 26.3184 -36.377 L 16.0645 -36.2793 L 26.2695 -46.3867 L 48.291 -68.4082 C 48.4863 -68.6523 48.584 -68.9453 48.584 -69.3359 C 48.584 -69.9219 48.0957 -70.459 47.3633 -70.459 C 47.0215 -70.459 46.6309 -70.3125 45.9961 -69.5801 L 12.793 -36.084 C 12.5488 -35.8398 12.4512 -35.5957 12.4512 -35.2539 Z"/>
  </g>
  <g id="Black-S" transform="matrix(1 0 0 1 2884.35 696)">
   <path d="M 9.76562 -35.498 C 9.76562 -33.3496 10.6934 -31.0059 12.0605 -29.6387 L 36.4258 -5.32227 C 38.0371 -3.71094 40.0391 -2.83203 41.8945 -2.83203 C 46.7285 -2.83203 49.8047 -6.10352 49.8047 -10.3516 C 49.8047 -12.8906 48.6328 -14.6484 47.1191 -16.1133 L 38.3301 -24.7559 L 35.0098 -27.832 L 42.4316 -27.4902 L 79.834 -27.4902 C 84.9609 -27.4902 88.3301 -30.6641 88.3301 -35.498 C 88.3301 -40.332 84.9609 -43.5059 79.834 -43.5059 L 42.4316 -43.5059 L 35.0098 -43.1641 L 38.3301 -46.2402 L 47.1191 -54.9316 C 48.6328 -56.3965 49.8047 -58.1543 49.8047 -60.6934 C 49.8047 -64.9414 46.7285 -68.2129 41.8945 -68.2129 C 40.0391 -68.2129 38.0371 -67.334 36.4258 -65.7227 L 12.0605 -41.3574 C 10.6934 -39.9902 9.76562 -37.6465 9.76562 -35.498 Z"/>
  </g>
  <g id="Heavy-S" transform="matrix(1 0 0 1 2588.52 696)">
   <path d="M 9.76562 -35.4492 C 9.76562 -33.5449 10.5957 -31.4941 11.8164 -30.2734 L 36.4258 -5.76172 C 37.8418 -4.3457 39.5996 -3.56445 41.2598 -3.56445 C 45.459 -3.56445 48.1934 -6.44531 48.1934 -10.2051 C 48.1934 -12.4023 47.2168 -13.9648 45.8984 -15.2832 L 37.5977 -23.4863 L 31.8359 -28.8086 L 39.6973 -28.418 L 79.1504 -28.418 C 83.5938 -28.418 86.5723 -31.2012 86.5723 -35.4492 C 86.5723 -39.6973 83.5938 -42.4805 79.1504 -42.4805 L 39.6973 -42.4805 L 31.8848 -42.0898 L 37.5977 -47.3633 L 45.8984 -55.6641 C 47.2168 -56.9336 48.1934 -58.5449 48.1934 -60.6934 C 48.1934 -64.4531 45.459 -67.334 41.2598 -67.334 C 39.5996 -67.334 37.8418 -66.6016 36.377 -65.1367 L 11.8164 -40.625 C 10.5957 -39.3555 9.76562 -37.3535 9.76562 -35.4492 Z"/>
  </g>
  <g id="Bold-S" transform="matrix(1 0 0 1 2292.81 696)">
   <path d="M 9.76562 -35.4004 C 9.76562 -33.7402 10.4492 -32.0801 11.5723 -30.957 L 36.377 -6.25 C 37.6465 -5.0293 39.1113 -4.39453 40.5273 -4.39453 C 44.043 -4.39453 46.4355 -6.83594 46.4355 -10.0586 C 46.4355 -11.8164 45.6543 -13.2324 44.5312 -14.3066 L 36.7676 -22.1191 L 28.2715 -29.8828 L 36.6211 -29.3945 L 78.3691 -29.3945 C 82.0801 -29.3945 84.5703 -31.8359 84.5703 -35.4004 C 84.5703 -38.9648 82.0801 -41.3574 78.3691 -41.3574 L 36.6211 -41.3574 L 28.2715 -40.8691 L 36.7676 -48.6328 L 44.5312 -56.4453 C 45.6543 -57.5684 46.4355 -58.9355 46.4355 -60.7422 C 46.4355 -63.9648 44.043 -66.4062 40.5273 -66.4062 C 39.1113 -66.4062 37.6465 -65.7715 36.377 -64.502 L 11.5723 -39.7949 C 10.4492 -38.6719 9.76562 -37.0117 9.76562 -35.4004 Z"/>
  </g>
  <g id="Semibold-S" transform="matrix(1 0 0 1 1996.78 696)">
   <path d="M 9.76562 -35.3516 C 9.76562 -33.9355 10.4004 -32.4707 11.4258 -31.4453 L 36.377 -6.5918 C 37.5 -5.51758 38.7695 -4.98047 40.0391 -4.98047 C 43.0664 -4.98047 45.166 -7.08008 45.166 -9.96094 C 45.166 -11.4746 44.5801 -12.6953 43.6035 -13.6719 L 36.1816 -21.1426 L 25.7324 -30.6641 L 34.4727 -30.0781 L 77.832 -30.0781 C 81.0547 -30.0781 83.2031 -32.2266 83.2031 -35.3516 C 83.2031 -38.4277 81.0547 -40.5762 77.832 -40.5762 L 34.4727 -40.5762 L 25.7812 -40.0391 L 36.1816 -49.5117 L 43.6035 -57.0312 C 44.5801 -57.959 45.166 -59.2285 45.166 -60.7422 C 45.166 -63.5742 43.0664 -65.7227 40.0391 -65.7227 C 38.7695 -65.7227 37.5 -65.1855 36.3281 -64.0625 L 11.4258 -39.209 C 10.4004 -38.1836 9.76562 -36.7676 9.76562 -35.3516 Z"/>
  </g>
  <g id="Medium-S" transform="matrix(1 0 0 1 1700.58 696)">
   <path d="M 9.76562 -35.3027 C 9.76562 -34.0332 10.3027 -32.7637 11.2793 -31.8359 L 36.3281 -6.83594 C 37.3535 -5.85938 38.4766 -5.37109 39.6973 -5.37109 C 42.334 -5.37109 44.2383 -7.27539 44.2383 -9.86328 C 44.2383 -11.1816 43.75 -12.3047 42.8711 -13.1836 L 35.7422 -20.4102 L 23.8281 -31.25 L 32.9102 -30.6152 L 77.4414 -30.6152 C 80.2246 -30.6152 82.1777 -32.5684 82.1777 -35.3027 C 82.1777 -38.0371 80.2246 -39.9414 77.4414 -39.9414 L 32.9102 -39.9414 L 23.877 -39.3555 L 35.7422 -50.1465 L 42.8711 -57.4219 C 43.75 -58.3008 44.2383 -59.4238 44.2383 -60.7422 C 44.2383 -63.3301 42.334 -65.2344 39.6973 -65.2344 C 38.4766 -65.2344 37.3535 -64.7461 36.3281 -63.7695 L 11.2793 -38.7695 C 10.3027 -37.8418 9.76562 -36.5723 9.76562 -35.3027 Z"/>
  </g>
  <g id="Regular-S" transform="matrix(1 0 0 1 1404.56 696)">
   <path d="M 9.76562 -35.2539 C 9.76562 -34.1797 10.2539 -33.1543 11.1328 -32.3242 L 36.3281 -7.17773 C 37.207 -6.34766 38.1836 -5.95703 39.209 -5.95703 C 41.3574 -5.95703 43.0176 -7.56836 43.0176 -9.76562 C 43.0176 -10.791 42.6758 -11.8164 41.9434 -12.5 L 35.2051 -19.4824 L 21.2891 -31.9824 L 30.8105 -31.2988 L 76.9043 -31.2988 C 79.1992 -31.2988 80.8105 -32.959 80.8105 -35.2539 C 80.8105 -37.5488 79.1992 -39.209 76.9043 -39.209 L 30.8105 -39.209 L 21.3379 -38.5254 L 35.2051 -51.0254 L 41.9434 -58.0078 C 42.6758 -58.6914 43.0176 -59.7168 43.0176 -60.7422 C 43.0176 -62.9395 41.3574 -64.5508 39.209 -64.5508 C 38.1836 -64.5508 37.207 -64.1602 36.3281 -63.3301 L 11.1328 -38.1836 C 10.2539 -37.3535 9.76562 -36.3281 9.76562 -35.2539 Z"/>
  </g>
  <g id="Light-S" transform="matrix(1 0 0 1 1107.85 696)">
   <path d="M 9.76562 -35.2539 C 9.76562 -34.4238 10.1074 -33.6426 10.791 -33.0078 L 36.377 -7.42188 C 37.0605 -6.78711 37.7441 -6.49414 38.5254 -6.49414 C 40.1855 -6.49414 41.5039 -7.71484 41.5039 -9.375 C 41.5039 -10.2051 41.2109 -10.9863 40.6738 -11.5234 L 30.6152 -21.6797 L 18.5547 -32.7637 L 27.6367 -32.2754 L 77.8809 -32.2754 C 79.5898 -32.2754 80.8105 -33.4961 80.8105 -35.2539 C 80.8105 -37.0117 79.5898 -38.2324 77.8809 -38.2324 L 27.6367 -38.2324 L 18.5547 -37.7441 L 30.6152 -48.8281 L 40.6738 -58.9844 C 41.2109 -59.5215 41.5039 -60.3027 41.5039 -61.1328 C 41.5039 -62.793 40.1855 -64.0137 38.5254 -64.0137 C 37.7441 -64.0137 37.0117 -63.7207 36.2305 -62.9395 L 10.791 -37.5 C 10.1074 -36.8652 9.76562 -36.084 9.76562 -35.2539 Z"/>
  </g>
  <g id="Thin-S" transform="matrix(1 0 0 1 811.134 696)">
   <path d="M 9.76562 -35.2539 C 9.76562 -34.7656 9.96094 -34.3262 10.3516 -33.9844 L 36.4258 -7.76367 C 36.8164 -7.37305 37.207 -7.22656 37.6953 -7.22656 C 38.7207 -7.22656 39.4531 -7.95898 39.4531 -8.88672 C 39.4531 -9.375 39.2578 -9.86328 38.9648 -10.1562 L 24.6094 -24.5605 L 14.9414 -33.7891 L 23.4375 -33.5449 L 79.1016 -33.5449 C 80.0781 -33.5449 80.8105 -34.2285 80.8105 -35.2539 C 80.8105 -36.2793 80.0781 -36.9629 79.1016 -36.9629 L 23.4375 -36.9629 L 14.9414 -36.7188 L 24.6094 -45.9473 L 38.9648 -60.3516 C 39.3066 -60.6445 39.4531 -61.1328 39.4531 -61.6211 C 39.4531 -62.5488 38.7207 -63.2812 37.6953 -63.2812 C 37.207 -63.2812 36.7676 -63.1348 36.1328 -62.4512 L 10.3516 -36.5234 C 9.96094 -36.1816 9.76562 -35.7422 9.76562 -35.2539 Z"/>
  </g>
  <g id="Ultralight-S" transform="matrix(1 0 0 1 514.423 696)">
   <path d="M 9.76562 -35.2539 C 9.76562 -34.9121 9.86328 -34.668 10.1074 -34.4727 L 36.4746 -7.91016 C 36.7188 -7.71484 36.9141 -7.56836 37.2559 -7.56836 C 37.9395 -7.56836 38.3789 -8.05664 38.3789 -8.64258 C 38.3789 -8.98438 38.2812 -9.32617 38.0859 -9.47266 L 21.5332 -26.0742 L 13.1348 -34.2773 L 21.2891 -34.1797 L 79.7363 -34.1797 C 80.3223 -34.1797 80.8105 -34.6191 80.8105 -35.2539 C 80.8105 -35.8887 80.3223 -36.3281 79.7363 -36.3281 L 21.2891 -36.3281 L 13.1348 -36.2305 L 21.5332 -44.4336 L 38.0859 -61.0352 C 38.3301 -61.2305 38.3789 -61.5234 38.3789 -61.8652 C 38.3789 -62.4512 37.9395 -62.9395 37.2559 -62.9395 C 36.9141 -62.9395 36.6211 -62.793 36.0352 -62.207 L 10.1074 -36.0352 C 9.86328 -35.8398 9.76562 -35.5957 9.76562 -35.2539 Z"/>
  </g>
 </g>
</svg>
